<svg id="Layer_1" data-name="Layer 1" xmlns="http://www.w3.org/2000/svg" xmlns:xlink="http://www.w3.org/1999/xlink" viewBox="0 0 841.89 595.28"><defs><style>.cls-1{fill:none;}.cls-2{clip-path:url(#clip-path);}.cls-3{fill:#bfb5c1;}.cls-4{fill:#5e0a80;}.cls-5{fill:#58238d;}.cls-6{fill:#523987;}.cls-7{fill:#520d5b;}.cls-8{fill:#a178b2;}.cls-9{fill:#a03c94;}.cls-10{fill:#686b99;}.cls-11{fill:#490076;}.cls-12{fill:#fff;opacity:0.28;}.cls-13{fill:#fdd3c3;}.cls-14{opacity:0.18;}.cls-15{fill:#01a0c6;}</style><clipPath id="clip-path"><ellipse class="cls-1" cx="392.25" cy="243.92" rx="115.58" ry="109.06"/></clipPath></defs><title>saturno</title><g class="cls-2"><ellipse class="cls-3" cx="394.14" cy="245.28" rx="115.58" ry="109.06"/><path class="cls-4" d="M307.16,317.1a872,872,0,0,0,109.76-63.64A870.6,870.6,0,0,0,495.6,193a96.54,96.54,0,0,1,11.83,31.91,443.94,443.94,0,0,1-48,28c-18.64,9.36-19.16,8-37,16.63-19.83,9.64-47.73,24.25-75.75,40.91-7.21,4.29-27.33,16.41-37.05,9.25A10.61,10.61,0,0,1,307.16,317.1Z"/><path class="cls-5" d="M289.53,198.85c-.89,1.76-1.79,3.67-2.65,5.73s-1.64,4.13-2.28,6a679.14,679.14,0,0,0,96.46-24.4,679.32,679.32,0,0,0,77.73-31.32c-1.66-1.07-3.42-2.15-5.31-3.22-1.73-1-3.43-1.89-5.06-2.7a528.2,528.2,0,0,1-71.17,29.21A527.93,527.93,0,0,1,289.53,198.85Z"/><path class="cls-6" d="M284.8,209.85a100,100,0,0,0-3.15,10.3,103.25,103.25,0,0,0-2.44,13.5,535,535,0,0,0,100.48-30.42,535.79,535.79,0,0,0,84.9-44.4l-7.33-4.76A626.61,626.61,0,0,1,373.87,188,628.05,628.05,0,0,1,284.8,209.85Z"/><path class="cls-7" d="M279,237.9A594.44,594.44,0,0,0,385.1,209.53a594.6,594.6,0,0,0,89.7-41.94c-1.09-1.17-2.31-2.39-3.66-3.61a59.66,59.66,0,0,0-6.55-5.15,535.42,535.42,0,0,1-81.47,43,535.25,535.25,0,0,1-103.91,31.86,17.57,17.57,0,0,0-.23,2.25A16.13,16.13,0,0,0,279,237.9Z"/><path class="cls-8" d="M278.92,253.89A510.81,510.81,0,0,0,393.68,218,510.45,510.45,0,0,0,478,170.19l-3.15-2.6a594.41,594.41,0,0,1-81.56,38.86A594.61,594.61,0,0,1,279,237.9c-.25,2.26-.42,4.73-.46,7.38A74.3,74.3,0,0,0,278.92,253.89Z"/><path class="cls-9" d="M280.65,266q1.13,4.51,2.27,9c19.84-5.55,61.48-18.05,103-37.7,20.3-9.61,38.54-20,40.6-21.14,10.43-6,22.62-13.31,35.94-22.2,9-6,16.63-11.44,22.73-15.92-1.11-1.32-2.28-2.67-3.53-4s-2.49-2.66-3.7-3.87a511,511,0,0,1-94,52.06,510.31,510.31,0,0,1-105,31.64Q279.77,260,280.65,266Z"/><path class="cls-10" d="M334.31,338.61l174.77-81.78a875,875,0,0,1-81.63,57c-22.52,13.9-44.29,25.93-64.91,36.36a118.61,118.61,0,0,1-28.23-11.61Z"/><path class="cls-11" d="M371.69,352.29A471.84,471.84,0,0,0,440,316.37a472.26,472.26,0,0,0,68.07-52.55c-.22.81-.43,1.66-.63,2.53-.32,1.41-.58,2.77-.79,4.07a411.59,411.59,0,0,1-63.09,49.25,411,411,0,0,1-65.3,33.65Z"/><path class="cls-11" d="M411.48,352.4c.93,1.56,5.67.23,14.48-2.24a124.39,124.39,0,0,0,30.6-13.07,128.94,128.94,0,0,0,16.59-12.21c7.68-6.63,18.26-15.76,16.71-18.45-2.17-3.76-28,5.15-49.81,19.35C425.37,335.31,409.54,349.14,411.48,352.4Z"/></g><path class="cls-12" d="M482.26,202.74c19.39,36.33,15.18,82.73-9.79,119.69a105.13,105.13,0,0,0,25.66-34.72c19.45-42.81,1.93-83.31-.13-87.88-17.1-37.82-50.69-52.77-63.53-57.47C383.71,123.78,339.3,149,333,152.72,392.62,130.69,456.5,154.46,482.26,202.74Z"/><path class="cls-13" d="M282.92,275.05a107,107,0,0,0,24.24,42.05,871.74,871.74,0,0,0,96.8-55A871,871,0,0,0,495.6,193c-1.07-1.83-2.23-3.71-3.51-5.64a109.6,109.6,0,0,0-6.91-9.27A603.64,603.64,0,0,1,400,230.46,603.13,603.13,0,0,1,282.92,275.05Z"/><path class="cls-14" d="M281.65,220.15c-.57,11.07-.54,39.75,17.52,68.64,16.78,26.85,39.72,38.81,50.68,44.34,34,17.16,66.07,15.49,80.36,13.83-9.84,3.26-41.32,12.29-77.64-.81-10.14-3.65-41.82-15.64-60.7-50S279.7,228.61,281.65,220.15Z"/><path class="cls-15" d="M291.87,296.14C272.46,312,269,318.37,270.4,321c1.29,2.41,6.94,2.28,15.83,2.08a100.8,100.8,0,0,0,16.11-1.55c46.36-9.66,200.86-95.82,200.86-95.82h0c5.1-3.3,9.06-5.58,11.53-6.95,1.42-.79,2.4-1.32,2.72-1.49,7.44-4,38.81-26.47,34.84-35-1.37-2.94-6.49-3.18-13.73-3.52-10.21-.48-18.61,2.64-22.7,4.16-8.73,3.25-12.8,5-12.8,5-2,.85-4.17,1.31-6.15,2.23-1.06.5-1.66.85-2.43.67-1.56-.36-2-2.47-3.16-4.75a19.6,19.6,0,0,0-4.62-5.81,265.39,265.39,0,0,1,34.62-13.81s32.82-10.46,56.77-8.74c.45,0,1,.08,1.65.15,3.8.41,22.79,2.45,25.08,11.35.82,3.22-.73,6.55-5.81,13.46-12.9,17.54-23,25.07-23,25.07-14.26,13.83-29.92,26.11-54.9,41.71-33.82,21.12-61.07,33.55-111.91,56.75-14.71,6.71-25,11.16-45.67,20.06C326.71,342.2,312,347.51,294.94,353c-14.59,4.67-23.76,7-34.84,8.18-15.9,1.74-52.4,3.05-56.48-9.5-3-9.19,12.08-22,27.18-34.84a232,232,0,0,1,54.6-34.49Q288.64,289.23,291.87,296.14Z"/><circle class="cls-12" cx="323.01" cy="220.16" r="16.01"/><circle class="cls-12" cx="353.41" cy="227.46" r="6.91"/></svg>